<svg width="470.215" height="89.502" viewBox="0 0 470.215 89.502" xmlns="http://www.w3.org/2000/svg"><g id="svgGroup" stroke-linecap="round" fill-rule="evenodd" font-size="9pt" stroke="#000" stroke-width="0.25mm" fill="none" style="stroke:#000;stroke-width:0.25mm;fill:none"><path d="M 50.391 22.901 L 44.434 33.447 A 215.148 215.148 0 0 0 36.917 48.361 Q 31.5 60.309 28.906 70.655 Q 27.247 77.097 16.367 77.1 A 26.352 26.352 0 0 1 16.358 77.1 A 29.644 29.644 0 0 1 12.517 76.871 Q 8.372 76.327 6.227 74.489 A 6.351 6.351 0 0 1 4.883 72.901 A 5.192 5.192 0 0 1 4.434 71.93 Q 4.227 71.311 4.227 70.707 A 3.495 3.495 0 0 1 4.273 70.142 Q 4.492 68.799 5.566 66.626 Q 6.641 64.453 8.496 61.182 L 12.842 53.76 L 18.164 45.02 L 24.17 35.596 L 30.42 26.221 A 198.384 198.384 0 0 0 22.476 28.089 Q 14.124 30.248 8.737 32.595 A 40.629 40.629 0 0 0 5.566 34.131 Q 4.395 34.766 3.125 34.766 A 4.734 4.734 0 0 1 1.907 34.623 Q 0 34.114 0 31.787 A 4.5 4.5 0 0 1 0.078 31.024 Q 0.307 29.72 1.212 27.356 A 54.968 54.968 0 0 1 1.416 26.831 Q 2.832 23.242 3.858 21.24 A 32.378 32.378 0 0 1 5.184 18.832 Q 6.672 16.397 8.2 15.099 A 8.372 8.372 0 0 1 8.643 14.746 Q 12.32 12.034 36.123 9.798 A 523.883 523.883 0 0 1 39.16 9.522 A 491.11 491.11 0 0 1 44.553 9.094 Q 52.051 8.545 56.006 8.545 A 302.656 302.656 0 0 1 58.452 8.554 Q 61.478 8.579 63.13 8.669 A 33.436 33.436 0 0 1 63.501 8.692 A 52.352 52.352 0 0 1 66.93 9.035 A 59.346 59.346 0 0 1 68.115 9.204 Q 70.508 9.571 72.9 10.132 A 34.804 34.804 0 0 1 76.901 11.32 A 31.682 31.682 0 0 1 77.441 11.524 Q 82.08 13.33 83.936 16.016 A 55.864 55.864 0 0 1 86.478 20.044 Q 89.746 25.794 89.746 29.785 A 8.929 8.929 0 0 1 88.247 34.585 Q 86.358 37.584 82.089 40.519 A 41.847 41.847 0 0 1 80.664 41.455 A 111.672 111.672 0 0 1 76.437 44.037 A 129.246 129.246 0 0 1 74.805 44.971 Q 65.087 50.226 62.245 51.812 A 72.046 72.046 0 0 0 61.475 52.246 A 30.499 30.499 0 0 0 65.223 57.782 Q 69.405 62.787 76.556 67.994 A 101.699 101.699 0 0 0 77.539 68.701 Q 78.955 69.678 79.785 70.166 A 6.614 6.614 0 0 0 83.19 71.093 Q 85.596 71.093 88.428 69.483 A 5.893 5.893 0 0 1 89.587 68.932 A 22.082 22.082 0 0 1 88.421 66.639 A 16.053 16.053 0 0 1 87.061 60.254 A 15.593 15.593 0 0 1 89.417 52.16 Q 90.83 49.795 93.091 47.504 A 35.641 35.641 0 0 1 95.41 45.362 A 67.388 67.388 0 0 1 100.714 41.309 Q 103.6 39.334 106.39 37.941 A 39.651 39.651 0 0 1 107.3 37.5 Q 113.037 34.815 117.676 33.35 A 75.724 75.724 0 0 1 125.609 31.302 Q 129.67 30.499 133.332 30.323 A 42.144 42.144 0 0 1 135.352 30.274 A 15.738 15.738 0 0 1 138.873 30.653 A 12.796 12.796 0 0 1 141.626 31.616 Q 144.322 32.929 145.642 34.264 A 6.966 6.966 0 0 1 145.703 34.326 A 10.348 10.348 0 0 1 148.796 41.233 A 13.898 13.898 0 0 1 148.828 42.188 Q 148.828 43.604 148.535 44.385 A 4.943 4.943 0 0 0 148.325 45.096 A 3.64 3.64 0 0 0 148.242 45.85 A 2.181 2.181 0 0 0 149.567 47.936 Q 150.55 48.422 152.263 48.479 A 14.107 14.107 0 0 0 152.734 48.487 Q 155.547 48.487 159.83 46.175 A 40.433 40.433 0 0 0 161.426 45.264 L 162.229 44.822 A 143.067 143.067 0 0 1 163.893 41.793 A 223.708 223.708 0 0 1 167.285 35.987 A 196.436 196.436 0 0 1 171.802 28.827 A 143.35 143.35 0 0 1 176.172 22.583 A 119.22 119.22 0 0 1 180.125 17.534 Q 182.048 15.217 183.897 13.269 A 70.086 70.086 0 0 1 184.424 12.72 A 89.349 89.349 0 0 1 188.234 9.008 Q 190.15 7.256 191.978 5.822 A 54.639 54.639 0 0 1 191.992 5.811 Q 199.414 0 203.809 0 Q 205.078 0 205.908 0.928 A 3.548 3.548 0 0 1 206.446 1.706 A 2.707 2.707 0 0 1 206.738 2.93 Q 206.738 5.305 205.283 7.841 A 14.652 14.652 0 0 1 205.2 7.984 A 123.619 123.619 0 0 1 204.369 9.374 Q 203.027 11.585 201.123 14.551 L 190.723 30.322 Q 185.868 37.798 185.623 38.735 A 0.624 0.624 0 0 0 185.62 38.745 A 14.849 14.849 0 0 0 185.524 39.165 Q 185.401 39.743 185.4 40.036 A 1.431 1.431 0 0 0 185.4 40.039 Q 185.4 40.373 185.792 40.422 A 1.181 1.181 0 0 0 185.938 40.43 A 1.259 1.259 0 0 0 186.208 40.39 Q 186.888 40.232 188.675 39.437 A 62.754 62.754 0 0 0 188.965 39.307 L 195.215 36.475 A 110.605 110.605 0 0 1 202.724 33.501 Q 210.344 30.824 215.978 30.402 A 27.316 27.316 0 0 1 218.018 30.322 A 9.451 9.451 0 0 1 225.081 33.437 A 14.096 14.096 0 0 1 226.27 34.864 A 16.081 16.081 0 0 1 228.857 40.222 A 14.958 14.958 0 0 1 229.346 44.043 A 27.025 27.025 0 0 1 229.346 44.104 A 46.196 46.196 0 0 1 231.299 42.383 A 66.786 66.786 0 0 1 248.535 32.04 A 78.903 78.903 0 0 1 253.613 30.127 Q 259.023 28.302 263.285 27.74 A 27.333 27.333 0 0 1 266.846 27.49 Q 271.24 27.49 274.268 29.639 A 7.953 7.953 0 0 1 276.471 31.998 Q 277.427 33.606 277.486 35.662 A 9.504 9.504 0 0 1 277.49 35.938 A 9.757 9.757 0 0 1 276.331 40.357 Q 274.117 44.724 267.676 49.658 A 52.541 52.541 0 0 1 266.365 50.652 Q 265.76 51.095 265.207 51.468 A 29.418 29.418 0 0 1 264.844 51.709 L 263.086 52.881 Q 258.203 56.299 248.242 60.547 Q 250.85 61.913 253.159 62.121 A 9.139 9.139 0 0 0 253.98 62.158 Q 256.641 62.158 258.765 61.524 Q 260.59 60.978 262.83 60.036 A 60.831 60.831 0 0 0 263.574 59.717 A 71.369 71.369 0 0 0 266.711 58.252 A 91.592 91.592 0 0 0 269.312 56.909 A 106.134 106.134 0 0 0 274.708 53.804 A 116.548 116.548 0 0 0 275.488 53.321 A 103.064 103.064 0 0 0 279.703 50.562 A 8.787 8.787 0 0 1 280.048 49.303 Q 281.091 46.212 284.277 42.237 A 48.927 48.927 0 0 1 294.971 32.373 A 38.05 38.05 0 0 1 298.504 30.202 Q 302.402 28.112 305.522 27.904 A 10.223 10.223 0 0 1 306.201 27.881 A 11.428 11.428 0 0 1 308.163 28.037 Q 309.205 28.219 310.004 28.614 A 4.366 4.366 0 0 1 311.816 30.225 L 312.5 31.299 Q 313.115 32.26 313.73 32.464 A 1.048 1.048 0 0 0 314.063 32.52 A 12.328 12.328 0 0 0 314.508 32.511 Q 315.221 32.484 316.381 32.384 A 78.472 78.472 0 0 0 316.504 32.373 L 323.438 31.885 A 52.798 52.798 0 0 1 324.201 31.821 Q 325.028 31.758 325.629 31.743 A 14.177 14.177 0 0 1 325.977 31.739 Q 326.681 31.739 327.539 32.118 A 7.189 7.189 0 0 1 328.101 32.398 A 7.709 7.709 0 0 1 330.225 34.131 Q 332.275 36.572 332.275 39.502 A 4.468 4.468 0 0 1 331.857 41.233 Q 330.799 43.696 327.065 47.546 A 69.601 69.601 0 0 1 325.586 49.024 L 322.363 52.246 A 59.196 59.196 0 0 0 321.185 53.49 Q 319.045 55.823 318.906 56.633 A 0.625 0.625 0 0 0 318.897 56.739 Q 318.897 57.666 319.775 58.374 Q 320.654 59.082 321.68 59.082 A 4.519 4.519 0 0 0 322.628 58.975 Q 323.271 58.837 323.999 58.521 A 20.866 20.866 0 0 0 324.961 58.071 Q 325.454 57.826 326.013 57.524 A 50.156 50.156 0 0 0 327.197 56.861 Q 328.834 55.916 330.867 54.63 A 157.734 157.734 0 0 0 331.543 54.199 Q 337.032 50.593 339.529 48.829 A 55.806 55.806 0 0 0 340.479 48.145 L 344.531 45.264 A 39.82 39.82 0 0 1 345.473 44.616 A 106.31 106.31 0 0 1 347.284 39.818 Q 348.586 36.623 349.984 33.896 A 59.08 59.08 0 0 1 350.928 32.129 A 24.639 24.639 0 0 0 351.227 31.548 Q 351.807 30.377 351.807 29.981 L 345.508 29.981 A 12.295 12.295 0 0 1 343.354 29.804 Q 341.306 29.439 339.99 28.321 A 6.561 6.561 0 0 1 338.898 27.156 A 4.363 4.363 0 0 1 338.037 24.561 A 8.963 8.963 0 0 1 338.099 23.469 Q 338.241 22.317 338.708 21.634 A 2.474 2.474 0 0 1 338.818 21.485 Q 339.6 20.508 340.772 20.069 A 7.147 7.147 0 0 1 341.962 19.708 Q 343.231 19.43 345.046 19.391 A 28.299 28.299 0 0 1 345.654 19.385 L 357.617 19.434 A 0.632 0.632 0 0 0 357.808 19.3 Q 358.214 18.921 359.046 17.556 A 37.051 37.051 0 0 0 359.18 17.334 L 362.158 12.207 Q 363.423 9.938 364.698 8.464 A 11.358 11.358 0 0 1 365.991 7.178 A 6.862 6.862 0 0 1 370.532 5.567 Q 372.532 5.567 374.046 5.853 A 11.242 11.242 0 0 1 374.927 6.055 A 15.018 15.018 0 0 1 376.367 6.524 Q 377.075 6.798 377.664 7.123 A 8.468 8.468 0 0 1 377.93 7.276 A 8.173 8.173 0 0 1 379.004 8.101 Q 379.53 8.585 379.845 9.095 A 2.994 2.994 0 0 1 380.322 10.694 A 3.128 3.128 0 0 1 380.27 11.234 Q 380.171 11.795 379.884 12.542 A 12.791 12.791 0 0 1 379.785 12.793 L 377.051 19.434 L 400.244 19.385 A 4.207 4.207 0 0 1 401.461 19.545 Q 403.272 20.093 403.272 22.51 A 6.113 6.113 0 0 1 399.426 28.355 Q 396.63 29.696 391.799 29.897 A 42.492 42.492 0 0 1 390.039 29.932 L 372.168 29.981 A 1.162 1.162 0 0 0 371.884 30.204 Q 371.293 30.799 370.203 32.747 A 45.045 45.045 0 0 0 370.166 32.813 L 367.969 36.865 A 64.38 64.38 0 0 0 367.584 37.577 Q 367.055 38.572 366.798 39.157 A 9.396 9.396 0 0 0 366.797 39.16 L 365.723 41.553 A 77.254 77.254 0 0 0 364.33 44.884 Q 362.451 49.718 362.451 52.197 A 10.205 10.205 0 0 0 362.76 54.767 A 7.778 7.778 0 0 0 364.185 57.666 A 5.509 5.509 0 0 0 368.182 59.837 A 7.093 7.093 0 0 0 368.799 59.864 A 14.833 14.833 0 0 0 374.439 58.74 Q 377.197 57.617 379.834 56.006 A 74.218 74.218 0 0 0 382.882 54.01 Q 385.559 52.155 387.354 50.489 Q 389.963 48.065 391.728 46.754 A 23.814 23.814 0 0 1 391.895 46.631 L 395.313 44.239 A 18.925 18.925 0 0 1 396.561 43.469 A 11.257 11.257 0 0 1 396.632 43.43 A 67.388 67.388 0 0 1 399.542 41.309 Q 402.428 39.334 405.218 37.941 A 39.651 39.651 0 0 1 406.128 37.5 Q 411.865 34.815 416.504 33.35 A 75.724 75.724 0 0 1 424.437 31.302 Q 428.498 30.499 432.16 30.323 A 42.144 42.144 0 0 1 434.18 30.274 A 15.738 15.738 0 0 1 437.702 30.653 A 12.796 12.796 0 0 1 440.454 31.616 Q 443.15 32.929 444.47 34.264 A 6.966 6.966 0 0 1 444.531 34.326 A 10.348 10.348 0 0 1 447.624 41.233 A 13.898 13.898 0 0 1 447.656 42.188 Q 447.656 43.604 447.363 44.385 A 4.943 4.943 0 0 0 447.153 45.096 A 3.64 3.64 0 0 0 447.07 45.85 A 2.181 2.181 0 0 0 448.395 47.936 Q 449.378 48.422 451.091 48.479 A 14.107 14.107 0 0 0 451.563 48.487 Q 454.375 48.487 458.658 46.175 A 40.433 40.433 0 0 0 460.254 45.264 L 464.16 43.115 Q 465.341 42.445 466.324 42.213 A 4.294 4.294 0 0 1 467.31 42.09 A 3.5 3.5 0 0 1 468.229 42.204 A 2.531 2.531 0 0 1 469.434 42.92 A 2.75 2.75 0 0 1 470.086 44.13 Q 470.215 44.62 470.215 45.215 Q 470.215 46.68 469.238 48.609 A 19.612 19.612 0 0 1 468.12 50.523 Q 467.434 51.566 466.553 52.661 A 34.462 34.462 0 0 1 464.057 55.428 A 41.725 41.725 0 0 1 462.549 56.861 A 35.689 35.689 0 0 1 457.617 60.596 A 29.44 29.44 0 0 1 453.687 62.681 Q 450.029 64.258 446.729 64.258 A 25.542 25.542 0 0 1 443.395 64.054 Q 440.34 63.651 438.233 62.451 A 37.931 37.931 0 0 1 436.328 61.231 Q 431.104 67.188 421.191 72.168 Q 410.645 77.442 402.783 77.442 A 16.812 16.812 0 0 1 396.438 76.286 Q 392.513 74.702 389.746 70.947 A 22.082 22.082 0 0 1 387.249 66.639 A 16.053 16.053 0 0 1 386.814 65.544 A 140.24 140.24 0 0 1 383.088 68.203 Q 379.797 70.465 377.051 72.022 Q 369.566 76.176 363.106 77.283 A 26.982 26.982 0 0 1 358.545 77.686 A 21.24 21.24 0 0 1 352.673 76.912 A 16.373 16.373 0 0 1 345.801 72.998 Q 342.535 69.882 341.78 66.506 A 9.379 9.379 0 0 1 341.553 64.453 A 45.942 45.942 0 0 1 341.592 62.563 A 97.923 97.923 0 0 1 339.512 64.275 A 117.149 117.149 0 0 1 339.136 64.575 Q 336.279 66.846 332.813 69.165 Q 329.346 71.485 325.488 73.34 Q 318.246 76.86 311.976 77.463 A 26.64 26.64 0 0 1 309.424 77.588 A 31.864 31.864 0 0 1 305.145 77.324 Q 300.313 76.666 297.961 74.37 A 7.018 7.018 0 0 1 296.387 72.071 A 8.627 8.627 0 0 1 295.712 69.482 A 10.634 10.634 0 0 1 295.654 68.36 A 12.395 12.395 0 0 1 295.888 66.022 A 16.718 16.718 0 0 1 296.436 63.941 A 28.545 28.545 0 0 1 298.177 59.815 A 31.755 31.755 0 0 1 298.486 59.229 Q 301.025 54.59 304.492 51.026 A 75.012 75.012 0 0 0 305.179 50.295 Q 306.952 48.383 307.324 47.662 A 0.72 0.72 0 0 0 307.422 47.364 Q 307.422 46.451 306.406 46.2 A 2.521 2.521 0 0 0 306.372 46.192 A 7.04 7.04 0 0 0 305.702 46.074 Q 304.746 45.947 303.272 45.947 A 1.292 1.292 0 0 0 302.793 46.068 Q 301.781 46.494 299.586 48.421 A 50.015 50.015 0 0 0 299.512 48.487 L 294.727 52.881 Q 290.367 56.849 287.735 58.546 A 12.387 12.387 0 0 1 286.369 59.33 A 77.259 77.259 0 0 1 286.231 59.436 Q 284.534 60.742 282.593 62.11 A 101.232 101.232 0 0 1 277.426 65.508 A 122.789 122.789 0 0 1 274.024 67.53 Q 269.336 70.215 264.063 72.364 A 66.174 66.174 0 0 1 251.87 76.097 A 53.315 53.315 0 0 1 241.455 77.149 A 27.086 27.086 0 0 1 233.176 75.922 A 23.557 23.557 0 0 1 226.856 72.803 A 18.702 18.702 0 0 1 223.405 69.774 A 11.847 11.847 0 0 1 220.313 61.768 A 20.161 20.161 0 0 1 220.393 60.147 A 105.577 105.577 0 0 1 217.481 61.963 L 211.231 65.674 A 165.912 165.912 0 0 1 203.456 69.776 Q 192.037 75.386 185.928 75.579 A 13.576 13.576 0 0 1 185.498 75.586 Q 174.414 75.586 174.414 69.824 A 5.016 5.016 0 0 1 174.933 67.513 Q 175.473 66.455 176.572 65.696 A 7.178 7.178 0 0 1 177.441 65.186 A 15733.985 15733.985 0 0 0 183.995 61.637 Q 205.475 50 206.543 49.317 A 11.385 11.385 0 0 0 207.532 48.619 Q 209.082 47.385 209.082 46.24 Q 209.082 44.776 207.031 44.776 A 12.547 12.547 0 0 0 204.883 44.971 Q 203.9 45.142 202.843 45.462 A 20.563 20.563 0 0 0 202.539 45.557 A 49.442 49.442 0 0 0 199.997 46.452 Q 198.687 46.952 197.26 47.568 A 79.851 79.851 0 0 0 197.168 47.608 A 105.588 105.588 0 0 0 193.024 49.515 A 124.16 124.16 0 0 0 191.065 50.489 A 151.787 151.787 0 0 0 185.144 53.656 A 139.7 139.7 0 0 0 184.961 53.76 A 159.937 159.937 0 0 0 182.063 55.437 Q 178.182 57.742 176.468 59.141 A 14.155 14.155 0 0 0 176.392 59.204 Q 174.831 60.497 173.662 61.57 A 39.89 39.89 0 0 0 172.681 62.5 A 46.794 46.794 0 0 1 170.545 64.477 A 40.605 40.605 0 0 1 169.824 65.088 Q 166.504 67.822 164.795 67.822 A 8.96 8.96 0 0 1 163.076 67.664 A 7.189 7.189 0 0 1 161.719 67.261 Q 160.352 66.699 159.229 65.674 A 8.661 8.661 0 0 1 157.38 63.227 A 7.688 7.688 0 0 1 156.829 61.731 A 29.44 29.44 0 0 1 154.859 62.681 Q 151.201 64.258 147.9 64.258 A 25.542 25.542 0 0 1 144.567 64.054 Q 141.512 63.651 139.404 62.451 A 37.931 37.931 0 0 1 137.5 61.231 Q 132.275 67.188 122.363 72.168 Q 111.816 77.442 103.955 77.442 A 16.812 16.812 0 0 1 97.61 76.286 A 15.347 15.347 0 0 1 94.433 74.508 A 10.483 10.483 0 0 1 93.638 76.599 Q 92.051 79.882 88.25 83.415 A 44.083 44.083 0 0 1 87.012 84.522 A 30.338 30.338 0 0 1 83.86 86.929 Q 80.16 89.361 76.978 89.494 A 8.771 8.771 0 0 1 76.611 89.502 A 5.522 5.522 0 0 1 74.566 88.984 Q 70.121 87.11 60.254 78.467 Q 54.813 73.697 50.937 69.695 A 91.571 91.571 0 0 1 48.682 67.285 Q 44.238 62.354 42.578 59.937 A 13.894 13.894 0 0 1 41.776 58.629 Q 40.987 57.154 40.924 55.967 A 3.849 3.849 0 0 1 40.918 55.762 A 6.162 6.162 0 0 1 41.204 53.86 A 5.462 5.462 0 0 1 41.773 52.637 A 10.487 10.487 0 0 1 42.927 51.13 A 13.9 13.9 0 0 1 44.092 50 Q 46.387 48.047 50.635 45.825 A 72.535 72.535 0 0 0 53.601 44.19 Q 55.014 43.365 56.194 42.572 A 34.249 34.249 0 0 0 57.568 41.602 A 35.432 35.432 0 0 0 60.499 39.173 A 28.595 28.595 0 0 0 62.207 37.451 Q 66.076 33.363 66.461 29.987 A 6.506 6.506 0 0 0 66.504 29.248 A 6.451 6.451 0 0 0 66.203 27.24 A 5.443 5.443 0 0 0 65.039 25.244 Q 62.354 22.364 60.059 22.364 Q 57.34 22.364 53.79 22.617 A 152.905 152.905 0 0 0 50.391 22.901 Z M 108.301 55.078 L 108.252 55.225 L 108.252 55.274 A 7.386 7.386 0 0 0 108.303 56.177 Q 108.469 57.522 109.18 58.008 A 6.348 6.348 0 0 0 111.006 58.775 Q 112.345 59.096 113.764 58.754 A 6.907 6.907 0 0 0 113.916 58.716 Q 116.406 58.057 118.652 57.08 A 42.18 42.18 0 0 0 128.711 51.026 A 7.125 7.125 0 0 1 127.93 47.803 Q 127.93 44.692 130.338 41.582 A 17.498 17.498 0 0 1 131.006 40.772 A 11.58 11.58 0 0 0 128.372 41.112 Q 125.076 41.888 120.459 44.434 Q 113.135 48.487 109.473 52.783 Q 108.301 54.248 108.301 55.078 Z M 407.129 55.078 L 407.08 55.225 L 407.08 55.274 A 7.386 7.386 0 0 0 407.131 56.177 Q 407.298 57.522 408.008 58.008 A 6.348 6.348 0 0 0 409.834 58.775 Q 411.174 59.096 412.593 58.754 A 6.907 6.907 0 0 0 412.744 58.716 Q 415.234 58.057 417.481 57.08 A 42.18 42.18 0 0 0 427.539 51.026 A 7.125 7.125 0 0 1 426.758 47.803 Q 426.758 44.692 429.166 41.582 A 17.498 17.498 0 0 1 429.834 40.772 A 11.58 11.58 0 0 0 427.2 41.112 Q 423.904 41.888 419.287 44.434 Q 411.963 48.487 408.301 52.783 Q 407.129 54.248 407.129 55.078 Z M 242.969 53.76 L 245.654 52.393 A 78.936 78.936 0 0 0 246.826 51.773 Q 247.375 51.477 247.861 51.202 A 47.236 47.236 0 0 0 247.998 51.123 A 436.944 436.944 0 0 0 251.398 49.152 Q 258.118 45.212 259.229 44.141 A 15.397 15.397 0 0 0 259.693 43.675 Q 260.381 42.952 260.545 42.538 A 0.633 0.633 0 0 0 260.596 42.31 Q 260.596 41.914 260.421 41.416 A 4.826 4.826 0 0 0 260.303 41.114 A 4.344 4.344 0 0 0 259.522 39.893 A 5.148 5.148 0 0 0 258.813 39.202 Q 257.958 38.526 257.031 38.526 A 8.367 8.367 0 0 0 255.646 38.648 Q 254.92 38.77 254.126 39.014 A 17.72 17.72 0 0 0 251.732 39.952 A 20.498 20.498 0 0 0 250.928 40.357 A 19.648 19.648 0 0 0 247.827 42.407 Q 246.338 43.604 245.215 44.971 A 17.688 17.688 0 0 0 244.023 46.547 Q 242.9 48.234 242.68 49.632 A 4.264 4.264 0 0 0 242.627 50.293 Q 242.627 52.539 242.969 53.76 Z" vector-effect="non-scaling-stroke"/></g></svg>